<?xml version="1.0" standalone="no"?><!DOCTYPE svg PUBLIC "-//W3C//DTD SVG 1.1//EN" "http://www.w3.org/Graphics/SVG/1.1/DTD/svg11.dtd"><svg t="1752585438075" class="icon" viewBox="0 0 1024 1024" version="1.1" xmlns="http://www.w3.org/2000/svg" p-id="7357" xmlns:xlink="http://www.w3.org/1999/xlink" width="24" height="24"><path d="M512 671.3856A159.3856 159.3856 0 1 1 671.1296 512 159.5392 159.5392 0 0 1 512 671.3856z m0-288.0512A128.6656 128.6656 0 1 0 640.4096 512 128.768 128.768 0 0 0 512 383.3344z" fill="#099DFD" p-id="7358"></path><path d="M367.3088 742.912a15.36 15.36 0 0 1-8.5504-2.6112 274.7904 274.7904 0 0 1 0-456.6016 15.36 15.36 0 1 1 17.152 25.6 244.0704 244.0704 0 0 0 0 405.6064 15.36 15.36 0 0 1-8.6016 28.1088zM656.6912 742.912a15.36 15.36 0 0 1-8.6016-28.1088 244.0704 244.0704 0 0 0 0-405.6064 15.36 15.36 0 1 1 17.152-25.6 274.7904 274.7904 0 0 1 0 456.6016 15.36 15.36 0 0 1-8.5504 2.7136z" fill="#099DFD" p-id="7359"></path></svg>